<?xml version="1.0" encoding="UTF-8"?>
<svg xmlns="http://www.w3.org/2000/svg" xmlns:xlink="http://www.w3.org/1999/xlink" width="299pt" height="216pt" viewBox="0 0 299 216" version="1.1">
<g id="surface1">
<path style=" stroke:none;fill-rule:nonzero;fill:rgb(85.882353%,85.882353%,85.882353%);fill-opacity:1;" d="M 172.09375 206.519531 C 168.976562 205.160156 165.324219 200.746094 164.363281 197.179688 C 163.238281 193 161.464844 179.238281 161.445312 174.566406 C 161.4375 172.4375 161.300781 170.699219 161.136719 170.699219 C 160.972656 170.699219 159.070312 171.523438 156.902344 172.53125 C 147.597656 176.867188 139.09375 173.265625 134.582031 163.078125 L 133.003906 159.511719 L 130.945312 162.484375 C 128.117188 166.566406 122.21875 170.421875 116.621094 171.84375 C 105.613281 174.640625 93.300781 169.046875 88.171875 158.921875 C 85.195312 153.039062 82.640625 142.96875 81.953125 134.367188 C 80.464844 115.875 84.40625 98.789062 93.070312 86.140625 C 97.179688 80.144531 105.089844 77.164062 113.058594 78.609375 C 118.535156 79.605469 120.902344 80.78125 124.941406 84.507812 C 127.265625 86.652344 129.191406 87.640625 132.578125 88.429688 C 135.066406 89.011719 138.234375 90.1875 139.617188 91.042969 C 144.152344 93.847656 144.675781 96.039062 145.660156 116.246094 C 146.640625 136.371094 147.613281 141.503906 151.117188 145.011719 C 152.71875 146.613281 153.910156 147.113281 156.125 147.113281 L 159.03125 147.113281 L 159.441406 116.34375 C 159.847656 85.570312 160.742188 70.386719 163.683594 44.300781 C 166.558594 18.816406 167.371094 15.164062 170.878906 11.984375 C 174.714844 8.511719 184.25 7.429688 188.453125 9.996094 C 193.839844 13.285156 194.902344 17.535156 193.007812 28.257812 C 187.574219 59.039062 184.226562 82.46875 185.128906 83.371094 C 185.3125 83.554688 186.875 81.695312 188.601562 79.242188 C 192.855469 73.207031 200.441406 65.265625 205.902344 61.128906 C 211.910156 56.578125 221.761719 51.886719 226.089844 51.515625 C 232.152344 50.996094 237.269531 55.820312 237.273438 62.0625 C 237.277344 66.171875 235.523438 67.882812 226.421875 72.648438 C 204.46875 84.136719 192.609375 100.820312 190.480469 123.203125 C 189.539062 133.105469 193.507812 143.8125 200.835938 151.140625 C 204.25 154.558594 210.285156 158.160156 211.148438 157.296875 C 211.347656 157.09375 210.871094 154.308594 210.082031 151.101562 C 205.652344 133.023438 206.414062 119.90625 212.660156 106.824219 C 217.21875 97.277344 225.394531 90.21875 234.671875 87.8125 C 240.089844 86.410156 250.363281 86.355469 255.429688 87.707031 C 264.347656 90.082031 271.703125 96.238281 275.613281 104.597656 C 285.15625 125.015625 275.070312 153.414062 253.242188 167.578125 C 248.492188 170.660156 248.285156 170.910156 249.425781 172.171875 C 250.09375 172.90625 252.339844 174.242188 254.421875 175.140625 C 261.433594 178.15625 270.363281 176.179688 273.722656 170.867188 C 274.535156 169.582031 275.863281 167.46875 276.671875 166.167969 C 278.546875 163.15625 281.179688 162.261719 285.082031 163.3125 C 288.9375 164.351562 290.597656 167.269531 290.128906 172.183594 C 289.097656 182.921875 277.320312 193.472656 263.820312 195.75 C 251.699219 197.796875 234.90625 192.609375 226.984375 184.371094 L 224.425781 181.707031 L 217.351562 182.195312 C 204.65625 183.070312 195.359375 180.253906 186.453125 172.835938 C 183.109375 170.050781 182.050781 169.488281 182.054688 170.484375 C 182.0625 171.210938 182.886719 176.945312 183.890625 183.226562 C 184.894531 189.507812 185.722656 196.425781 185.726562 198.59375 C 185.730469 202.097656 185.453125 202.816406 183.226562 205.042969 C 181.132812 207.140625 180.203125 207.542969 177.519531 207.519531 C 175.757812 207.503906 173.316406 207.054688 172.09375 206.519531 Z M 242.519531 151.839844 C 245.757812 150.195312 251.09375 143.601562 252.792969 139.15625 C 256.019531 130.703125 255.210938 119.007812 251.25 116.886719 C 249.042969 115.703125 244.449219 116.054688 241.910156 117.605469 C 234.121094 122.359375 231.542969 138.746094 236.523438 151.855469 C 237.332031 153.984375 238.3125 153.980469 242.519531 151.839844 Z M 113.433594 146.355469 C 118.703125 143.140625 121.601562 132.050781 121.644531 114.957031 C 121.671875 103.898438 121.554688 103.507812 117.9375 102.644531 C 112.773438 101.414062 108.746094 109.792969 106.976562 125.4375 C 105.871094 135.191406 107.609375 147.855469 110.054688 147.847656 C 110.570312 147.84375 112.089844 147.171875 113.433594 146.355469 Z M 54.226562 200.996094 C 50.601562 198.78125 48.902344 196.019531 46.53125 188.460938 C 44.464844 181.871094 38.460938 153.851562 38.460938 150.792969 C 38.460938 149.683594 37.378906 149.191406 32.753906 148.195312 C 15.824219 144.550781 12.636719 143.242188 10.378906 139.015625 C 7.503906 133.632812 9.550781 128.214844 15.46875 125.542969 C 18.074219 124.367188 20.867188 123.894531 26.589844 123.664062 L 34.230469 123.355469 L 33.777344 116.625 C 31.3125 80.214844 33.882812 61.671875 44.210938 41.351562 C 50.410156 29.15625 61.53125 20.308594 73.988281 17.65625 C 83.148438 15.707031 95.042969 17.539062 101.050781 21.820312 C 106.933594 26.011719 107.925781 35.601562 103.027344 40.867188 C 100.148438 43.960938 97.320312 44.914062 89.460938 45.433594 C 83.089844 45.851562 81.195312 46.289062 77.207031 48.253906 C 68.347656 52.621094 63.949219 59.703125 62.316406 72.234375 C 60.925781 82.921875 59.648438 111.046875 60.230469 118.183594 L 60.726562 124.265625 L 63.765625 124.296875 C 65.441406 124.316406 68.292969 124.617188 70.101562 124.964844 C 80.136719 126.902344 83.03125 143.105469 74.484375 149.480469 C 73.4375 150.261719 70.265625 151.257812 67.433594 151.695312 L 62.285156 152.492188 L 63.273438 159.9375 C 63.816406 164.03125 65.429688 173.261719 66.859375 180.445312 C 69.789062 195.171875 69.722656 197.671875 66.300781 200.550781 C 63.527344 202.886719 57.679688 203.101562 54.226562 200.996094 Z M 54.226562 200.996094 "/>
<path style=" stroke:none;fill-rule:nonzero;fill:rgb(80%,80%,80%);fill-opacity:1;" d="M 54.402344 200.640625 C 51.617188 199.171875 49.207031 195.441406 47.269531 189.597656 C 45.683594 184.8125 41.183594 165.234375 39.554688 156.035156 C 39.011719 152.964844 38.324219 150.144531 38.03125 149.765625 C 37.734375 149.390625 33.351562 148.097656 28.285156 146.894531 C 15.128906 143.769531 12.679688 142.585938 10.484375 138.28125 C 8.324219 134.042969 9.640625 129.769531 14.015625 126.816406 C 16.871094 124.890625 19.355469 124.355469 27.480469 123.917969 L 34.726562 123.527344 L 34.382812 121.710938 C 34.195312 120.710938 33.871094 111.5625 33.664062 101.378906 C 33.242188 80.859375 33.882812 72.601562 36.71875 61.914062 C 43.332031 36.984375 55.429688 22.542969 73.371094 18.152344 C 77.632812 17.105469 86.84375 17.144531 91.410156 18.222656 C 101.699219 20.648438 105.980469 25.222656 105.546875 33.324219 C 105.371094 36.660156 105.066406 37.597656 103.542969 39.492188 C 100.527344 43.246094 98.050781 44.234375 89.203125 45.214844 C 82.335938 45.976562 80.792969 46.355469 77.085938 48.1875 C 69.78125 51.804688 65.425781 57.441406 63.164062 66.222656 C 61.007812 74.585938 59 112.511719 60.234375 121.535156 L 60.605469 124.222656 L 64.492188 124.574219 C 72.113281 125.265625 75.164062 126.890625 77.640625 131.574219 C 78.628906 133.4375 78.925781 135.023438 78.9375 138.449219 C 78.949219 142.390625 78.746094 143.234375 77.1875 145.742188 C 75.027344 149.226562 72.65625 150.523438 66.726562 151.46875 C 62.824219 152.089844 62.214844 152.347656 62.21875 153.375 C 62.226562 155.355469 63.863281 165.601562 66.332031 179.136719 C 69.457031 196.230469 69.375 198.113281 65.40625 200.730469 C 63.035156 202.292969 57.445312 202.25 54.402344 200.640625 Z M 54.402344 200.640625 "/>
<path style=" stroke:none;fill-rule:nonzero;fill:rgb(92.54902%,92.54902%,92.54902%);fill-opacity:1;" d="M 57.519531 201.347656 C 53.363281 200.476562 51.046875 198.21875 48.710938 192.765625 C 47.183594 189.207031 43.714844 175.289062 40.785156 160.988281 C 39.597656 155.195312 38.308594 150.121094 37.921875 149.714844 C 37.53125 149.308594 33.089844 147.917969 28.042969 146.621094 C 23 145.328125 17.859375 143.847656 16.617188 143.335938 C 12.207031 141.515625 9.957031 138.378906 9.957031 134.046875 C 9.957031 131.890625 10.316406 130.984375 11.867188 129.21875 C 14.671875 126.019531 17.609375 124.972656 25.605469 124.308594 C 29.433594 123.992188 32.960938 123.726562 33.445312 123.722656 C 34.214844 123.714844 34.324219 120.523438 34.324219 98.589844 C 34.324219 74.566406 34.386719 73.199219 35.671875 67.378906 C 37.394531 59.574219 40.601562 50 43.257812 44.710938 C 51.300781 28.707031 63.328125 19.242188 77.164062 18.027344 C 90.066406 16.894531 100.378906 19.941406 103.738281 25.878906 C 104.746094 27.660156 105.0625 29.164062 105.070312 32.21875 C 105.078125 36.648438 104.625 37.878906 101.933594 40.726562 C 99.765625 43.019531 96.882812 43.925781 87.535156 45.253906 C 76.136719 46.871094 69.460938 51.285156 65.367188 59.914062 C 63.054688 64.789062 62.074219 69.640625 60.964844 81.691406 C 60.179688 90.210938 59.859375 123.308594 60.554688 124.007812 C 60.769531 124.222656 62.929688 124.648438 65.351562 124.949219 C 70.902344 125.640625 73.320312 126.648438 75.574219 129.21875 C 78.003906 131.988281 78.824219 134.832031 78.558594 139.550781 C 78.382812 142.652344 77.980469 144.0625 76.734375 145.945312 C 74.800781 148.875 72.800781 149.972656 67.34375 151.113281 C 65.054688 151.589844 62.929688 152.136719 62.621094 152.328125 C 61.777344 152.851562 62.503906 158.789062 65.441406 175.429688 C 66.894531 183.671875 68.085938 192.09375 68.085938 194.144531 C 68.085938 197.5625 67.933594 198.019531 66.265625 199.582031 C 65.261719 200.519531 64.105469 201.285156 63.695312 201.285156 C 63.285156 201.285156 62.191406 201.398438 61.261719 201.535156 C 60.332031 201.667969 58.648438 201.585938 57.519531 201.347656 Z M 57.519531 201.347656 "/>
<path style=" stroke:none;fill-rule:nonzero;fill:rgb(92.54902%,92.54902%,92.54902%);fill-opacity:1;" d="M 173.378906 206.753906 C 171.382812 206.367188 166.957031 202.128906 165.589844 199.296875 C 164.304688 196.640625 162.457031 185.429688 161.730469 175.871094 C 161.515625 173.042969 161.144531 170.726562 160.90625 170.726562 C 160.667969 170.726562 158.777344 171.429688 156.703125 172.285156 C 147.355469 176.148438 139.953125 173.027344 135.035156 163.152344 L 133.160156 159.394531 L 129.726562 163.207031 C 119.152344 174.933594 102.316406 175.175781 92 163.746094 C 87.933594 159.242188 84.65625 150.605469 82.972656 139.972656 C 81.570312 131.117188 82.128906 115.464844 84.128906 107.550781 C 87.113281 95.746094 92.785156 85.191406 97.878906 81.957031 C 106.253906 76.640625 116.25 77.542969 124.449219 84.355469 C 127.535156 86.917969 129.8125 88.136719 132.675781 88.75 C 136.152344 89.496094 140.625 91.742188 141.921875 93.390625 C 143.773438 95.75 144.363281 99.582031 145.320312 115.441406 C 146.625 137.164062 147.40625 141.289062 150.910156 144.976562 C 152.828125 146.992188 153.339844 147.21875 155.984375 147.21875 L 158.921875 147.21875 L 159.304688 141.839844 C 159.511719 138.882812 159.6875 129.957031 159.691406 122.007812 C 159.707031 93.1875 161.121094 68.9375 164.4375 40.554688 C 166.402344 23.742188 167.410156 18.089844 169.003906 14.992188 C 170.214844 12.632812 172.976562 10.566406 176.054688 9.710938 C 179.09375 8.867188 185.226562 8.976562 187.472656 9.914062 C 190 10.972656 192.378906 13.875 193.191406 16.894531 C 193.988281 19.859375 193.84375 21.144531 190.210938 43.199219 C 186.363281 66.566406 184.832031 77.847656 185.046875 81.210938 L 185.226562 84.015625 L 189.324219 78.753906 C 199.574219 65.601562 208.433594 58.324219 219.699219 53.808594 C 226.75 50.984375 231.050781 51.488281 234.460938 55.546875 C 236.230469 57.648438 237.429688 61.550781 236.925781 63.558594 C 236.308594 66.027344 233.53125 68.339844 226.207031 72.492188 C 212.941406 80.015625 206.03125 85.96875 199.941406 95.128906 C 192.136719 106.871094 188.484375 123.042969 191.117188 134.222656 C 192.441406 139.847656 196.289062 146.75 200.441406 150.953125 C 204.011719 154.570312 210.292969 158.46875 211.152344 157.605469 C 211.40625 157.355469 211.148438 154.984375 210.582031 152.332031 C 207.996094 140.238281 207.714844 137.667969 207.984375 128.707031 C 208.214844 121.164062 208.484375 119.171875 209.863281 114.898438 C 214.464844 100.625 223.242188 91.128906 234.566406 88.175781 C 239.820312 86.808594 251.875 86.953125 256.691406 88.441406 C 274.804688 94.042969 283.351562 114.921875 276.425781 136.640625 C 272.398438 149.261719 264.078125 159.820312 251.070312 168.820312 C 248.703125 170.457031 248.394531 170.890625 248.910156 171.859375 C 250.03125 173.953125 255.847656 176.277344 260.566406 176.519531 C 267.792969 176.886719 271.46875 174.902344 275.644531 168.382812 C 278.472656 163.964844 280.519531 162.714844 283.886719 163.34375 C 285.035156 163.5625 286.824219 164.496094 287.859375 165.421875 C 289.605469 166.988281 289.738281 167.375 289.730469 170.859375 C 289.707031 180.273438 280.222656 190.558594 268.015625 194.40625 C 262.445312 196.164062 253.035156 196.125 246.289062 194.324219 C 239.484375 192.503906 232.542969 188.886719 228.296875 184.953125 L 224.679688 181.597656 L 215.816406 181.785156 C 202.917969 182.050781 196.90625 180.292969 188.203125 173.695312 C 182.527344 169.394531 181.996094 169.167969 181.996094 171.039062 C 181.996094 171.878906 182.65625 176.910156 183.460938 182.21875 C 184.265625 187.53125 185.097656 194.121094 185.308594 196.867188 L 185.691406 201.855469 L 183.039062 204.511719 C 180.582031 206.972656 180.183594 207.15625 177.523438 207.082031 C 175.945312 207.039062 174.082031 206.890625 173.378906 206.753906 Z M 241.597656 152.589844 C 244.25 151.382812 249.179688 146.265625 251.492188 142.316406 C 253.710938 138.523438 254.804688 133.628906 254.792969 127.554688 C 254.777344 121.742188 253.558594 117.878906 251.371094 116.707031 C 249.851562 115.894531 245.382812 115.890625 243.246094 116.699219 C 235.464844 119.640625 231.40625 135.613281 235.191406 148.414062 C 236.90625 154.214844 237.363281 154.515625 241.597656 152.589844 Z M 114.269531 145.789062 C 119.339844 141.445312 121.597656 132.253906 121.730469 115.402344 C 121.804688 105.964844 121.710938 104.925781 120.695312 103.796875 C 119.105469 102.035156 115.113281 102.078125 113.46875 103.878906 C 108.648438 109.144531 105.289062 126.21875 106.746094 138.066406 C 107.980469 148.132812 109.597656 149.792969 114.269531 145.789062 Z M 114.269531 145.789062 "/>
</g>
</svg>
