<?xml version="1.0" encoding="UTF-8" standalone="no"?>
<svg
   xmlns:dc="http://purl.org/dc/elements/1.1/"
   xmlns:cc="http://creativecommons.org/ns#"
   xmlns:rdf="http://www.w3.org/1999/02/22-rdf-syntax-ns#"
   xmlns:svg="http://www.w3.org/2000/svg"
   xmlns="http://www.w3.org/2000/svg"
   xmlns:sodipodi="http://sodipodi.sourceforge.net/DTD/sodipodi-0.dtd"
   xmlns:inkscape="http://www.inkscape.org/namespaces/inkscape"
   width="177mm"
   height="150mm"
   viewBox="0 0 177 150"
   version="1.1"
   id="svg8"
   inkscape:version="1.0.1 (3bc2e813f5, 2020-09-07)"
   sodipodi:docname="Slogan.svg">
  <defs
     id="defs2">
    <rect
       x="24.946428"
       y="30.994047"
       width="44.255688"
       height="15.904532"
       id="rect12-1-4" />
    <rect
       x="24.946428"
       y="30.994047"
       width="44.255688"
       height="15.904532"
       id="rect1408" />
    <rect
       x="24.946428"
       y="30.994047"
       width="84.581718"
       height="16.541445"
       id="rect12-8-98-4" />
    <rect
       x="24.946428"
       y="30.994047"
       width="84.581718"
       height="16.541445"
       id="rect1411" />
    <rect
       x="24.946428"
       y="30.994047"
       width="84.581718"
       height="16.541445"
       id="rect12-8-9-5-4" />
    <rect
       x="24.946428"
       y="30.994047"
       width="84.581718"
       height="16.541445"
       id="rect1414" />
  </defs>
  <sodipodi:namedview
     id="base"
     pagecolor="#ffffff"
     bordercolor="#666666"
     borderopacity="1.0"
     inkscape:pageopacity="0.0"
     inkscape:pageshadow="2"
     inkscape:zoom="0.7"
     inkscape:cx="473.0737"
     inkscape:cy="528.95096"
     inkscape:document-units="mm"
     inkscape:current-layer="layer1"
     inkscape:document-rotation="0"
     showgrid="false"
     inkscape:window-width="1920"
     inkscape:window-height="1017"
     inkscape:window-x="-8"
     inkscape:window-y="-8"
     inkscape:window-maximized="1" />
  <metadata
     id="metadata5">
    <rdf:RDF>
      <cc:Work
         rdf:about="">
        <dc:format>image/svg+xml</dc:format>
        <dc:type
           rdf:resource="http://purl.org/dc/dcmitype/StillImage" />
        <dc:title></dc:title>
      </cc:Work>
    </rdf:RDF>
  </metadata>
  <g
     inkscape:label="Layer 1"
     inkscape:groupmode="layer"
     id="layer1">
    <g
       id="g1304"
       transform="matrix(1.4371061,0,0,1.4371061,-7.5720479,-109.52054)">
      <text
         xml:space="preserve"
         id="text10-4"
         style="font-style:normal;font-weight:normal;font-size:10.5833px;line-height:1.25;font-family:sans-serif;white-space:pre;shape-inside:url(#rect12-1-4);fill:#4d4d4d;fill-opacity:1;stroke:none;"
         transform="matrix(1.0284907,-0.35264802,0.38496348,1.122738,-28.318654,91.144696)"><tspan
           x="24.947266"
           y="42.723719"><tspan
             style="font-style:normal;font-variant:normal;font-weight:normal;font-stretch:normal;font-family:'Hello Crafter - Personal Use';-inkscape-font-specification:'Hello Crafter - Personal Use';fill:#4d4d4d">Chez      </tspan></tspan></text>
      <text
         xml:space="preserve"
         id="text10-3-8"
         style="font-style:normal;font-weight:normal;font-size:10.5833px;line-height:1.25;font-family:sans-serif;white-space:pre;shape-inside:url(#rect12-8-98-4);fill:#4d4d4d;fill-opacity:1;stroke:none;"
         transform="matrix(1.0284907,-0.35264802,0.38496348,1.122738,-9.8201731,102.10377)"><tspan
           x="24.947266"
           y="42.723719"><tspan
             style="font-style:normal;font-variant:normal;font-weight:normal;font-stretch:normal;font-family:'Hello Crafter - Personal Use';-inkscape-font-specification:'Hello Crafter - Personal Use';fill:#4d4d4d">rien n'est vrai      </tspan></tspan></text>
      <text
         xml:space="preserve"
         id="text10-3-3-8"
         style="font-style:normal;font-weight:normal;font-size:10.5833px;line-height:1.25;font-family:sans-serif;white-space:pre;shape-inside:url(#rect12-8-9-5-4);fill:#4d4d4d;fill-opacity:1;stroke:none;"
         transform="matrix(1.2173412,-0.41740098,0.45565015,1.3288942,-24.807626,114.26382)"><tspan
           x="24.947266"
           y="42.723719"><tspan
             style="font-style:normal;font-variant:normal;font-weight:normal;font-stretch:normal;font-family:'Hello Crafter - Personal Use';-inkscape-font-specification:'Hello Crafter - Personal Use';fill:#4d4d4d">même le site!     </tspan></tspan></text>
      <g
         id="g1276"
         transform="matrix(1.067864,0,0,1.067864,-3.4072729,-9.4799169)">
        <g
           id="g1243"
           style="fill:#000000"
           transform="translate(-22.111608,15.213542)">
          <g
             id="g1264">
            <path
               style="fill:#000000;fill-opacity:1;stroke:none;stroke-width:0.133635"
               d="m 68.573858,110.43806 c -0.577231,-0.31663 -1.109918,-0.45621 -2.152078,-2.46632 l -2.346706,-4.52631 -1.45954,0.0223 c -1.656175,0.0253 -2.156743,-0.0627 -2.272212,-0.39944 -0.113123,-0.32992 0.374697,-0.7907 1.462145,-1.3811 l 0.928762,-0.50424 -0.852974,-2.735565 c -0.915366,-2.935412 -0.995135,-3.502737 -0.744869,-5.295441 0.125445,-0.898521 0.875239,-2.58334 1.38389,-3.109652 0.877771,-0.908247 2.933579,-1.728674 3.953449,-1.577735 0.938951,0.138965 1.318454,1.043364 0.676585,1.612358 -0.191542,0.169795 -0.806818,0.598255 -1.367279,0.952136 -1.233829,0.779056 -1.575073,1.120284 -1.796564,1.796461 -0.328467,1.002765 -0.201125,1.83684 0.72503,4.748905 l 0.855806,2.690793 0.699209,-0.0665 c 0.411406,-0.0391 0.913587,0.0295 1.220033,0.1667 0.443481,0.1986 0.529722,0.29806 0.580718,0.6697 0.07039,0.51329 -0.08,0.76597 -0.794065,1.33397 -0.52351,0.41642 -0.525859,0.42343 -0.331366,0.99011 0.107733,0.3139 1.549307,3.79796 1.856057,4.35323 0.754115,1.36519 1.101235,2.39094 0.873593,2.58142 -0.339098,0.28373 -0.74577,0.33717 -1.097528,0.14421 z"
               id="path1099-4"
               sodipodi:nodetypes="cscsssccsssssssccccsscscc" />
            <path
               style="fill:#000000;fill-opacity:1;stroke:none;stroke-width:0.133635"
               d="m 82.810668,106.12944 c -0.417259,-0.0834 -0.624248,-0.32435 -1.432676,-1.54304 l -2.306449,-3.47693 -0.898419,0.35061 c -1.030293,0.40206 -1.568492,0.35478 -2.417646,-0.21239 -0.493305,-0.32949 -0.495287,-0.32947 -0.754229,0.007 -0.85249,1.10909 -1.28619,1.47398 -2.07745,1.74783 -1.425186,0.49321 -2.452516,0.12419 -3.432096,-1.23296 -0.479938,-0.66493 -0.646014,-1.03749 -1.07646,-2.414902 l -0.508966,-1.62868 0.228675,-1.09501 c 0.125772,-0.602256 0.375382,-1.314657 0.554693,-1.583115 0.29776,-0.445792 0.401646,-0.507948 1.19846,-0.717026 0.910211,-0.238832 2.108475,-0.221674 3.363399,0.04817 0.82301,0.176969 0.891423,0.263273 1.994514,2.516471 0.830392,1.696166 1.230479,2.243085 1.696257,2.318768 0.36558,0.0594 0.924067,-0.11657 0.966769,-0.304602 0.01699,-0.075 -0.398989,-1.664715 -0.924486,-3.532675 -1.192083,-4.23745 -1.374984,-4.94366 -1.80992,-6.98829 -0.672959,-3.163599 -0.596035,-3.616308 0.687465,-4.045568 1.129569,-0.377792 1.27174,-0.103806 1.958445,3.774063 0.526849,2.975177 0.642544,3.382123 0.93322,3.282456 0.113969,-0.03908 0.450276,-0.495149 0.747355,-1.01349 0.783543,-1.367093 1.58691,-2.424688 2.266384,-2.983591 0.975569,-0.802456 1.580187,-0.882275 1.80117,-0.237786 0.105746,0.308409 0.01543,0.451962 -1.401665,2.227893 -1.356196,1.699615 -1.897224,3.150088 -1.775354,4.75963 0.09732,1.285343 0.450374,2.157178 1.137542,2.809073 0.674507,0.639895 2.117172,1.23702 2.593813,1.07359 l 0.311743,-0.106891 -0.701987,-1.779711 c -0.815047,-2.066222 -0.88282,-2.660436 -0.452591,-3.967232 0.843047,-2.560653 4.500782,-3.673033 6.479852,-1.970635 0.442487,0.380626 0.565081,0.591015 0.877753,1.506213 0.326638,0.955717 0.347673,1.148097 0.208695,1.893838 -0.08726,0.468128 -0.50364,1.513945 -0.954955,2.39854 -0.541079,1.060524 -0.760471,1.637873 -0.677421,1.782716 0.190481,0.332316 0.783397,0.34364 1.69762,0.03245 0.753819,-0.256461 0.875987,-0.344568 1.246309,-0.897345 0.805159,-1.201863 1.196663,-1.411706 1.41896,-0.76055 0.267261,0.782559 -0.284064,1.913383 -1.307531,2.68227 -0.438809,0.329662 -0.885216,0.529834 -1.725771,0.773857 -1.016241,0.295019 -1.269958,0.312714 -2.446369,0.17057 -1.149512,-0.138894 -1.500116,-0.117188 -2.822861,0.174765 -1.151358,0.254126 -1.747711,0.311156 -2.509105,0.239956 -1.6394,-0.1533 -0.05235,1.98883 0.669522,3.74531 0.451601,1.0988 0.588973,1.55309 0.522702,1.72795 -0.10278,0.27108 -0.755737,0.52615 -1.146852,0.448 z M 88.009912,96.0803 c 0.701222,-0.736709 0.840658,-1.750952 0.412411,-2.999925 -0.354899,-1.03505 -0.640069,-1.244231 -1.359818,-0.997445 -0.66874,0.229297 -1.066549,0.680388 -1.135271,1.287339 -0.06616,0.584345 0.598106,2.694103 0.951843,3.023 0.254664,0.236806 0.733769,0.10421 1.130864,-0.312977 z m -15.185335,4.47357 c 0.358582,-0.732784 0.314111,-1.158434 -0.312123,-2.98758 l -0.606063,-1.769999 -0.42605,0.101683 c -0.66597,0.158945 -0.934313,0.846504 -0.759312,1.945554 0.149071,0.936243 0.745141,2.807552 0.985962,3.095372 0.19241,0.22996 0.943165,-0.0287 1.117475,-0.38517 z"
               id="path1101-0"
               sodipodi:nodetypes="cscssccsscsssssscssssssssssssccsscssccscssssssccccsssscccccssscc" />
          </g>
        </g>
        <path
           style="fill:#00b0ff;fill-opacity:1;stroke:none;stroke-width:0.133635"
           d="m 45.922247,125.53002 c -0.577231,-0.31663 -1.109918,-0.45621 -2.152078,-2.46632 l -2.346706,-4.52631 -1.45954,0.0223 c -1.656175,0.0253 -2.156743,-0.0627 -2.272212,-0.39944 -0.113123,-0.32992 0.374697,-0.7907 1.462145,-1.3811 l 0.928762,-0.50424 -0.852974,-2.73556 c -0.915366,-2.93542 -0.995135,-3.50274 -0.744869,-5.29544 0.125445,-0.89853 0.875239,-2.58334 1.38389,-3.10966 0.877771,-0.90824 2.933579,-1.72867 3.953449,-1.57773 0.938951,0.13896 1.318454,1.04336 0.676585,1.61236 -0.191542,0.16979 -0.806818,0.59825 -1.367279,0.95213 -1.233829,0.77906 -1.575073,1.12029 -1.796564,1.79646 -0.328467,1.00277 -0.201125,1.83684 0.72503,4.74891 l 0.855806,2.69079 0.699209,-0.0665 c 0.411406,-0.0391 0.913587,0.0295 1.220033,0.1667 0.443481,0.1986 0.529722,0.29806 0.580718,0.6697 0.07039,0.51329 -0.08,0.76597 -0.794065,1.33397 -0.52351,0.41642 -0.525859,0.42343 -0.331366,0.99011 0.107733,0.3139 1.549307,3.79796 1.856057,4.35323 0.754115,1.36519 1.101235,2.39094 0.873593,2.58142 -0.339098,0.28373 -0.74577,0.33717 -1.097528,0.14421 z"
           id="path1099-4-0"
           sodipodi:nodetypes="cscsssccsssssssccccsscscc" />
        <path
           style="fill:#00b0ff;fill-opacity:1;stroke:none;stroke-width:0.133635"
           d="m 60.159057,121.2214 c -0.417259,-0.0834 -0.624248,-0.32435 -1.432676,-1.54304 l -2.306449,-3.47693 -0.898419,0.35061 c -1.030293,0.40206 -1.568492,0.35478 -2.417646,-0.21239 -0.493305,-0.32949 -0.495287,-0.32947 -0.754229,0.007 -0.85249,1.10909 -1.28619,1.47398 -2.07745,1.74783 -1.425186,0.49321 -2.452516,0.12419 -3.432096,-1.23296 -0.479938,-0.66493 -0.646014,-1.03749 -1.07646,-2.4149 l -0.508966,-1.62868 0.228675,-1.09501 c 0.125772,-0.60226 0.375382,-1.31466 0.554693,-1.58312 0.29776,-0.44579 0.401646,-0.50794 1.19846,-0.71702 0.910211,-0.23883 2.108475,-0.22168 3.363399,0.0482 0.82301,0.17697 0.891423,0.26327 1.994514,2.51647 0.830392,1.69617 1.230479,2.24308 1.696257,2.31877 0.36558,0.0594 0.924067,-0.11657 0.966769,-0.3046 0.01699,-0.075 -0.398989,-1.66472 -0.924486,-3.53268 -1.192083,-4.23745 -1.374984,-4.94366 -1.80992,-6.98829 -0.672959,-3.1636 -0.596035,-3.616309 0.687465,-4.045569 1.129569,-0.377792 1.27174,-0.103806 1.958445,3.774059 0.526849,2.97518 0.642544,3.38213 0.93322,3.28246 0.113969,-0.0391 0.450276,-0.49515 0.747355,-1.01349 0.783543,-1.36709 1.58691,-2.42469 2.266384,-2.98359 0.975569,-0.80246 1.580187,-0.88228 1.80117,-0.23779 0.105746,0.30841 0.01543,0.45197 -1.401665,2.2279 -1.356196,1.69961 -1.897224,3.15008 -1.775354,4.75963 0.09732,1.28534 0.450374,2.15717 1.137542,2.80907 0.674507,0.63989 2.117172,1.23702 2.593813,1.07359 l 0.311743,-0.10689 -0.701987,-1.77971 c -0.815047,-2.06622 -0.88282,-2.66044 -0.452591,-3.96723 0.843047,-2.56066 4.500783,-3.67304 6.479853,-1.97064 0.442487,0.38063 0.565081,0.59102 0.877753,1.50621 0.326639,0.95572 0.347673,1.1481 0.208695,1.89384 -0.08726,0.46813 -0.503639,1.51395 -0.954955,2.39854 -0.541081,1.06053 -0.760471,1.63787 -0.677421,1.78272 0.190479,0.33231 0.783397,0.34364 1.69762,0.0324 0.753819,-0.25646 0.875988,-0.34457 1.246309,-0.89735 0.805159,-1.20186 1.196663,-1.4117 1.41896,-0.76055 0.267261,0.78256 -0.284064,1.91339 -1.307531,2.68227 -0.438809,0.32966 -0.885216,0.52984 -1.725771,0.77386 -1.016241,0.29502 -1.269958,0.31271 -2.446369,0.17057 -1.149512,-0.13889 -1.500117,-0.11719 -2.822862,0.17476 -1.151358,0.25413 -1.747711,0.31116 -2.509105,0.23996 -1.6394,-0.1533 -0.05235,1.98883 0.669522,3.74531 0.451601,1.0988 0.588973,1.55309 0.522702,1.72795 -0.10278,0.27108 -0.755737,0.52615 -1.146852,0.448 z m 5.199245,-10.04914 c 0.701223,-0.73671 0.840658,-1.75095 0.412411,-2.99992 -0.354898,-1.03505 -0.640069,-1.24424 -1.359818,-0.99745 -0.668741,0.2293 -1.06655,0.68039 -1.135272,1.28734 -0.06616,0.58435 0.598106,2.6941 0.951845,3.023 0.254661,0.23681 0.733769,0.10421 1.130863,-0.31298 z m -15.185336,4.47357 c 0.358582,-0.73278 0.314111,-1.15843 -0.312123,-2.98758 l -0.606063,-1.77 -0.42605,0.10169 c -0.66597,0.15894 -0.934313,0.8465 -0.759312,1.94555 0.149071,0.93624 0.745141,2.80755 0.985962,3.09537 0.19241,0.22996 0.943165,-0.0287 1.117475,-0.38517 z"
           id="path1101-0-9"
           sodipodi:nodetypes="cscssccsscsssssscssssssssssssccsscssccscssssssccccsssscccccssscc" />
      </g>
      <path
         style="fill:#4d4d4d;fill-opacity:1;stroke:none;stroke-width:0.303831"
         d="m 23.668532,166.09879 c 1.299108,-0.98776 2.382651,-1.46896 10.97775,-5.39342 22.501401,-10.06588 31.049309,-12.76297 43.774537,-17.12803 14.698386,-4.87382 16.823829,-5.29962 25.467901,-7.4392 12.52408,-2.57223 11.28029,-1.29997 -0.20852,2.01039 -23.039973,4.3813 -49.548079,16.41564 -67.503321,23.58953 -6.236666,2.55644 -10.426172,5.216 -11.418279,5.24602 -1.477793,0.0447 -1.881689,-0.28326 -1.089981,-0.88521 z"
         id="path1099-4-7-3-1"
         sodipodi:nodetypes="ccccccscc" />
    </g>
  </g>
</svg>
